<svg width="15" height="15" viewBox="0 0 15 15" fill="none" xmlns="http://www.w3.org/2000/svg">
<path fill-rule="evenodd" clip-rule="evenodd" d="M12.0208 9.65227C11.6236 9.19107 10.9285 9.12518 10.4651 9.55344C10.432 9.58638 10.3989 9.61933 10.3658 9.65227C9.96854 10.0476 9.57132 10.4429 9.2072 10.8382C9.141 10.937 8.97549 10.97 8.87619 10.9041C8.61137 10.7723 8.34656 10.6406 8.11485 10.5088C6.98939 9.78404 5.99634 8.89458 5.1688 7.84041C4.73847 7.34627 4.37436 6.75329 4.10954 6.16032C4.04334 6.06149 4.07644 5.92972 4.17575 5.86384C4.57297 5.50146 4.93709 5.10615 5.33431 4.71083C5.79773 4.31552 5.86393 3.62372 5.46671 3.16252C5.43361 3.09663 5.36741 3.06369 5.3012 2.9978C5.00329 2.70132 4.67227 2.37189 4.37436 2.0754C4.04334 1.74597 3.74542 1.44949 3.41441 1.12006C3.05029 0.658858 2.32205 0.592972 1.85863 1.02123C1.82553 1.05417 1.79242 1.08712 1.75932 1.12006C1.3621 1.48243 0.997983 1.87775 0.600763 2.27306C0.236644 2.60249 0.0380343 3.06369 0.00493264 3.55783C-0.0281691 4.34846 0.104238 5.17204 0.435255 5.89678C1.03109 7.4451 1.89173 8.86164 2.98409 10.1135C4.40746 11.8265 6.19495 13.2101 8.18105 14.1654C9.0748 14.6266 10.0678 14.9231 11.0609 14.989C11.756 15.0549 12.4181 14.8243 12.8815 14.2972C13.2125 13.9348 13.6097 13.5725 13.9407 13.2101C14.4042 12.8148 14.4704 12.09 14.0732 11.6288C14.04 11.5959 14.0069 11.53 13.9407 11.4971C13.2787 10.9041 12.6498 10.2782 12.0208 9.65227ZM11.4912 6.25915L12.4512 6.09444C12.1202 4.21669 10.6306 2.80015 8.74378 2.5366L8.61137 3.52489C10.0678 3.6896 11.2264 4.80966 11.4912 6.25915ZM13.0139 2.04246C11.8884 0.922401 10.4651 0.197657 8.87619 0L8.74378 0.988287C11.425 1.35066 13.5766 3.42606 14.0401 6.09444L15 5.92972C14.7683 4.44729 14.0732 3.09663 13.0139 2.04246Z" fill="#777777"/>
</svg>
