<svg width="18" height="18" viewBox="0 0 18 18" fill="none" xmlns="http://www.w3.org/2000/svg">
<path fill-rule="evenodd" clip-rule="evenodd" d="M4.03368 0.828332C5.09154 0.282623 6.26474 -0.00140935 7.45494 5.25819e-06C8.85626 0.00134408 10.2288 0.398292 11.4147 1.14523C12.6006 1.89214 13.5517 2.9587 14.1588 4.22232C14.7659 5.48595 15.0043 6.89532 14.8465 8.28843C14.6887 9.68154 14.1413 11.0018 13.267 12.0975L17.7594 16.5922C17.9135 16.7473 18 16.9571 18 17.1757C18 17.3944 17.9135 17.6042 17.7594 17.7593C17.6044 17.9135 17.3947 18 17.1761 18C16.9576 18 16.7479 17.9135 16.5929 17.7593L12.1004 13.2646C11.1714 14.009 10.0776 14.5197 8.91063 14.7539C7.74368 14.9881 6.53762 14.939 5.39353 14.6108C4.24944 14.2826 3.20067 13.6847 2.33512 12.8674C1.46957 12.05 0.812468 11.037 0.418897 9.91318C0.0253136 8.78938 -0.093265 7.58754 0.0730961 6.40845C0.239457 5.22935 0.685898 4.10734 1.37501 3.13644C2.06413 2.16554 2.97582 1.37407 4.03368 0.828332ZM12.0922 10.9221C12.9696 9.74914 13.3703 8.28714 13.2137 6.83043C13.057 5.37374 12.3546 4.03049 11.2478 3.07111C10.141 2.11173 8.71211 1.60745 7.24867 1.65979C5.78521 1.71213 4.39591 2.31718 3.36043 3.35318C2.32495 4.38917 1.72018 5.77915 1.66788 7.24334C1.61557 8.70751 2.1196 10.1371 3.0785 11.2445C4.0374 12.3518 5.37998 13.0545 6.83596 13.2113C8.29194 13.368 9.75322 12.9671 10.9256 12.0892C11.3645 11.7537 11.7568 11.3612 12.0922 10.9221Z" fill="#555555"/>
</svg>
