<svg width="18" height="13" viewBox="0 0 18 13" fill="none" xmlns="http://www.w3.org/2000/svg">
<path d="M17.9867 1.30793C17.9867 1.28708 18.0009 1.26679 18 1.24618L12.507 6.61105L17.9934 11.8046C17.9966 11.7675 17.9867 11.73 17.9867 11.6922V1.30793Z" fill="#777777"/>
<path d="M11.6685 7.43663L9.42607 9.62349C9.3126 9.73415 9.16604 9.78963 9.01941 9.78963C8.87583 9.78963 8.73225 9.73652 8.61956 9.63007L6.38326 7.51781L0.861017 12.9131C0.995292 12.962 1.13942 13 1.29035 13H16.7485C16.9727 13 17.1829 12.9308 17.3656 12.8276L11.6685 7.43663Z" fill="#777777"/>
<path d="M9.013 8.37644L17.3961 0.191116C17.2063 0.0767317 16.9853 0 16.7485 0H1.29035C0.981998 0 0.69945 0.12136 0.479386 0.306451L9.013 8.37644Z" fill="#777777"/>
<path d="M0 1.50729V11.692C0 11.8089 0.0265109 11.9216 0.0552897 12.0294L5.50903 6.70602L0 1.50729Z" fill="#777777"/>
</svg>
